<?xml version="1.0" encoding="UTF-8"?>
<svg xmlns="http://www.w3.org/2000/svg" version="1.1" viewBox="0 0 64 64">
  <!-- Generator: Adobe Illustrator 28.7.1, SVG Export Plug-In . SVG Version: 1.2.0 Build 142)  -->
  <g>
    <g id="Glyph">
      <g>
        <rect x="15.13152" y="7.1109" width="4" height="4"/>
        <path d="M13.13152,7.1109h-3c-1.65002,0-3,1.34998-3,3v1h6v-4Z"/>
        <path d="M43.13152,10.1109c0-1.65002-1.34998-3-3-3h-19v4h22v-1Z"/>
        <path d="M38.13152,25.1109c1.77002,0,3.46002.35999,5,1v-13H7.13152v27c0,1.64996,1.34998,3,3,3h16c-.64001-1.54004-1-3.23004-1-5,0-7.17004,5.83002-13,13-13ZM29.42448,16.81794c-.39062-.39062-.39062-1.02344,0-1.41406s1.02344-.39062,1.41406,0l3,3c.39062.39062.39062,1.02344,0,1.41406,0,0-3,3-3.00009,3.00009-.38664.38654-1.02601.38788-1.41398-.00009-.39062-.39062-.39062-1.02344,0-1.41406l2.29297-2.29297-2.29297-2.29297ZM23.18327,21.7945l2-6c.1748-.52344.7373-.80859,1.26465-.63184.52344.17383.80664.74023.63184,1.26465,0,0-1.99465,5.98395-1.99999,5.99997-.40999,1.22998-2.30467.59177-1.8965-.63278ZM16.42448,18.40387l3-3c.39062-.39062,1.02344-.39062,1.41406,0s.39062,1.02344,0,1.41406l-2.29297,2.29297,2.29297,2.29297c.39062.39062.39062,1.02344-.00002,1.41408-.38684.38682-1.02612.3879-1.41404-.00002l-3-3c-.39062-.39062-.39062-1.02344,0-1.41406ZM12.13152,25.1109h12c.55273,0,1,.44727,1,1s-.44727,1-1,1h-12c-.55273,0-1-.44727-1-1s.44727-1,1-1ZM18.13152,39.1109h-6c-.55273,0-1-.44727-1-1s.44727-1,1-1h6c.55273,0,1,.44727,1,1s-.44727,1-1,1ZM22.13152,35.1109h-10c-.55273,0-1-.44727-1-1s.44727-1,1-1h10c.55273,0,1,.44727,1,1s-.44727,1-1,1ZM24.13152,31.1109h-12c-.55273,0-1-.44727-1-1s.44727-1,1-1h12c.55273,0,1,.44727,1,1s-.44727,1-1,1Z"/>
        <path d="M55.58153,50.31092c-.0119-.00989-6.41998-5.33002-6.41998-5.33002-1.05005,1.67999-2.48004,3.10999-4.16003,4.15997l5.33002,6.42004c1.37018,1.65649,3.98322,1.78674,5.51007.25989.7348-.7348,1.07062-1.77948,1.02234-2.80688-.04834-1.0274-.48071-2.03748-1.28241-2.703Z"/>
        <path d="M49.13152,38.1109c0-6.06543-4.93457-11-11-11s-11,4.93457-11,11,4.93457,11,11,11,11-4.93457,11-11ZM38.13152,45.1109c-3.30859,0-6-2.69141-6-6,0-1.10156.30273-2.18359.875-3.12891.28711-.47168.90234-.62109,1.37402-.33691.47168.28613.62305.90137.33691,1.37402-.38379.63184-.58594,1.35547-.58594,2.0918,0,2.20605,1.79395,4,4,4s4-1.79395,4-4c0-1.12988-.47754-2.20703-1.30957-2.95703-.26923-.245-.57013-.44501-.88837-.60693.27307.39008.25336.92255-.09503,1.27094-.38751.38757-1.02765.38647-1.41406.00006l-2-2c-.39062-.39062-.39062-1.02344,0-1.41406l2-2c.39062-.39062,1.02344-.39062,1.41406,0s.39062,1.02344,0,1.41406l-.4364.4364c1.01758.22198,1.97644.7016,2.76257,1.41614,1.24902,1.12598,1.9668,2.74512,1.9668,4.44043,0,3.30859-2.69141,6-6,6Z"/>
      </g>
    </g>
  </g>
</svg>