<?xml version="1.0" encoding="UTF-8"?>
<svg xmlns="http://www.w3.org/2000/svg" version="1.1" viewBox="0 0 64 64">
  <!-- Generator: Adobe Illustrator 28.7.1, SVG Export Plug-In . SVG Version: 1.2.0 Build 142)  -->
  <g>
    <g id="Glyph">
      <g>
        <path d="M24,21h16c1.6543,0,3-1.3457,3-3v-8c0-1.6543-1.3457-3-3-3h-16c-1.6543,0-3,1.3457-3,3v8c0,1.6543,1.3457,3,3,3ZM35.29297,11.70703c-.39062-.39062-.39062-1.02344,0-1.41406s1.02344-.39062,1.41406,0l3,3c.39062.39062.39062,1.02344,0,1.41406l-2.99999,2.99999c-.37017.37017-1.02112.39297-1.41408.00001-.39062-.39062-.39062-1.02344,0-1.41406l2.29297-2.29297-2.29297-2.29297ZM30.05176,16.68359l2-6c.17383-.52344.7373-.80859,1.26465-.63184.52344.17383.80664.74023.63184,1.26465l-1.99999,5.99998c-.17191.51574-.75076.80315-1.26465.63185-.52344-.17383-.80664-.74023-.63184-1.26465ZM24.29297,13.29297l3-3c.39062-.39062,1.02344-.39062,1.41406,0s.39062,1.02344,0,1.41406l-2.29297,2.29297,2.29297,2.29297c.39062.39062.39062,1.02344-.00002,1.41408-.38742.38739-1.02784.38618-1.41404-.00002l-3-3c-.39062-.39062-.39062-1.02344,0-1.41406Z"/>
        <path d="M56.90002,53c-.47003,2.27997-2.49005,4-4.90002,4H12c-2.40997,0-4.42999-1.72003-4.90002-4h49.80005Z"/>
        <path d="M24.38184,49h-11.66016c-.29395,0-.57324-.12891-.7627-.35352-.19043-.22461-.27246-.52051-.22363-.81055l.66699-4c.08008-.48242.49707-.83594.98633-.83594h37.22266c.48926,0,.90625.35352.98633.83594l.66699,4c.04883.29004-.0332.58594-.22363.81055-.18945.22461-.46875.35352-.7627.35352h-11.66016l1,2h16.22882l-1.66663-10H8.81964l-1.66663,10h16.22882l1-2Z"/>
        <polygon points="26.61816 49 25.61816 51 38.38184 51 37.38184 49 26.61816 49"/>
        <path d="M31,23h-7c-2.76001,0-5-2.23999-5-5v-7h-7c-1.65002,0-3,1.34998-3,3v25h22v-16ZM25,34c0,1.64996-1.34998,3-3,3s-3-1.35004-3-3v-6c0-.54999.45001-1,1-1s1,.45001,1,1v6c0,.54999.45001,1,1,1s1-.45001,1-1v-6c0-.54999.45001-1,1-1s1,.45001,1,1v6ZM29,36c0,.54999-.45001,1-1,1s-1-.45001-1-1v-8c0-.54999.45001-1,1-1s1,.45001,1,1v8Z"/>
        <path d="M33,23v16h22V14c0-1.65002-1.34998-3-3-3h-7v7c0,2.76001-2.23999,5-5,5h-7ZM43.10999,28.45001c-.25-.5-.04999-1.10004.44-1.34003.5-.25,1.10004-.04999,1.34003.44l1.10999,2.21002,1.10999-2.21002c.23999-.48999.84003-.69,1.34003-.44.48999.23999.69.84003.44,1.34003l-1.77002,3.54999,1.77002,3.54999c.24999.49997.05001,1.09991-.43993,1.33999-.45869.22477-1.09628.06186-1.3401-.43996l-1.10999-2.21002-1.10998,2.21001c-.24345.48471-.85506.69848-1.34003.44001-.48999-.24005-.69-.84003-.44-1.34003l1.77002-3.54999-1.77002-3.54999ZM41,28v6c0,1.64996-1.34998,3-3,3s-3-1.35004-3-3v-6c0-.54999.45001-1,1-1s1,.45001,1,1v6c0,.54999.45001,1,1,1s1-.45001,1-1v-6c0-.54999.45001-1,1-1s1,.45001,1,1Z"/>
        <polygon points="49.76465 45 14.23535 45 13.90234 47 26 47 38 47 50.09766 47 49.76465 45"/>
      </g>
    </g>
  </g>
</svg>