<?xml version="1.0" encoding="UTF-8"?>
<svg xmlns="http://www.w3.org/2000/svg" version="1.1" viewBox="0 0 64 64">
  <!-- Generator: Adobe Illustrator 28.7.1, SVG Export Plug-In . SVG Version: 1.2.0 Build 142)  -->
  <g>
    <g id="Glyph">
      <g>
        <path d="M17,35h30c1.6543,0,3-1.3457,3-3V10c0-1.6543-1.3457-3-3-3h-30c-1.6543,0-3,1.3457-3,3v22c0,1.6543,1.3457,3,3,3ZM46,32h-10c-.55225,0-1-.44775-1-1s.44775-1,1-1h10c.55225,0,1,.44775,1,1s-.44775,1-1,1ZM46,28h-10c-.55225,0-1-.44775-1-1s.44775-1,1-1h10c.55225,0,1,.44775,1,1s-.44775,1-1,1ZM46,24h-10c-.55225,0-1-.44775-1-1s.44775-1,1-1h10c.55225,0,1,.44775,1,1s-.44775,1-1,1ZM35.29297,11.70703c-.39062-.39062-.39062-1.02344,0-1.41406s1.02344-.39062,1.41406,0l2,2c.39062.39062.39062,1.02344,0,1.41406,0,0-2,2-2.00003,2.00003-.38759.38756-1.02754.38647-1.41404-.00003-.39062-.39062-.39062-1.02344,0-1.41406l1.29297-1.29297-1.29297-1.29297ZM30.10547,14.55273l2-4c.24658-.49365.8457-.69531,1.3418-.44727.49414.24707.69434.84766.44727,1.3418l-1.99999,3.99998c-.24368.48736-.85716.68961-1.34181.44729-.49414-.24707-.69434-.84766-.44727-1.3418ZM25.29297,12.29297l2-2c.39062-.39062,1.02344-.39062,1.41406,0s.39062,1.02344,0,1.41406l-1.29297,1.29297,1.29297,1.29297c.39062.39062.39062,1.02344,0,1.41407-.38726.38725-1.02637.38767-1.41406,0l-2-2c-.39062-.39062-.39062-1.02344,0-1.41406ZM18,18h28c.55225,0,1,.44775,1,1s-.44775,1-1,1h-13v11c0,.55225-.44775,1-1,1s-1-.44775-1-1v-11h-13c-.55225,0-1-.44775-1-1s.44775-1,1-1ZM18,22h10c.55225,0,1,.44775,1,1s-.44775,1-1,1h-10c-.55225,0-1-.44775-1-1s.44775-1,1-1ZM18,26h10c.55225,0,1,.44775,1,1s-.44775,1-1,1h-10c-.55225,0-1-.44775-1-1s.44775-1,1-1ZM18,30h10c.55225,0,1,.44775,1,1s-.44775,1-1,1h-10c-.55225,0-1-.44775-1-1s.44775-1,1-1Z"/>
        <polygon points="49.76416 45 14.23584 45 13.90234 47 26 47 38 47 50.09766 47 49.76416 45"/>
        <polygon points="26.61816 49 25.61816 51 38.38184 51 37.38184 49 26.61816 49"/>
        <path d="M24.38184,49h-11.66016c-.29395,0-.57324-.12939-.76318-.35352-.18994-.22461-.27148-.521-.22314-.81104l.66699-4c.08057-.48193.49756-.83545.98633-.83545h37.22266c.48877,0,.90576.35352.98633.83545l.66699,4c.04834.29004-.0332.58643-.22314.81104-.18994.22412-.46924.35352-.76318.35352h-11.66016l1,2h16.22894l-1.66669-10H8.81958l-1.66669,10h16.22894l1-2Z"/>
        <path d="M55,14c0-1.65002-1.34998-3-3-3v21c0,2.76001-2.23999,5-5,5h-30c-2.76001,0-5-2.23999-5-5V11c-1.65002,0-3,1.34998-3,3v25h46V14Z"/>
        <path d="M40,53H7.10107c.46466,2.2793,2.4845,4,4.89893,4h40c2.41443,0,4.43427-1.7207,4.89893-4h-16.89893Z"/>
      </g>
    </g>
  </g>
</svg>