<?xml version="1.0" encoding="UTF-8"?>
<svg xmlns="http://www.w3.org/2000/svg" version="1.1" viewBox="0 0 64 64">
  <!-- Generator: Adobe Illustrator 28.7.1, SVG Export Plug-In . SVG Version: 1.2.0 Build 142)  -->
  <g>
    <g id="Glyph">
      <g>
        <path d="M28.34998,28c-.87.89996-1.34998,1.90997-1.34998,3,0,3.98999,6.45001,7,15,7s15-3.01001,15-7c0-3.53003-5.04999-6.29004-12.13-6.88-.5,2.21997-2.48999,3.88-4.87,3.88h-11.65002Z"/>
        <path d="M27,35.51001v6.48999c0,2.35999,6.41998,5,15,5s15-2.64001,15-5v-6.48999c-2.75,2.76996-8.16998,4.48999-15,4.48999s-12.25-1.72003-15-4.48999Z"/>
        <path d="M27,45.42999v3.57001c0,3.98999,6.45001,7,15,7s15-3.01001,15-7v-3.57001c-3.06,2.33997-9.15997,3.57001-15,3.57001s-11.94-1.23004-15-3.57001Z"/>
        <path d="M43,23v-12c0-1.6543-1.3457-3-3-3H10c-1.6543,0-3,1.3457-3,3v12c0,1.6543,1.3457,3,3,3h30c1.6543,0,3-1.3457,3-3ZM15,23c-1.6543,0-3-1.3457-3-3v-.17139c0-.26709-.10449-.51855-.29297-.70752l-1.41406-1.41406c-.39062-.39062-.39062-1.02344,0-1.41406l1.41406-1.41406c.18848-.18896.29297-.44043.29297-.70752v-.17139c0-1.6543,1.3457-3,3-3,.55273,0,1,.44775,1,1s-.44727,1-1,1c-.55176,0-1,.44873-1,1v.17139c0,.80127-.31251,1.55518-.87891,2.12158l-.70703.70703.70703.70703c.5664.56641.87891,1.32031.87891,2.12158v.17139c0,.55127.44824,1,1,1,.55273,0,1,.44775,1,1s-.44727,1-1,1ZM20.70703,20.29297c.39062.39062.39062,1.02344,0,1.41407-.3872.38719-1.02836.38569-1.41406,0l-4-4c-.39062-.39062-.39062-1.02344,0-1.41406l4-4c.39062-.39062,1.02344-.39062,1.41406,0s.39062,1.02344,0,1.41406l-3.29297,3.29297,3.29297,3.29297ZM26.96973,13.24268s-1.99959,7.99838-2,8c-.12669.50676-.67589.86316-1.21191.72754-.53613-.13379-.8623-.67676-.72754-1.21289l2-8c.13379-.53564.67578-.86377,1.21191-.72754.53613.13379.8623.67676.72754,1.21289ZM29.99995,21.99241c-.87174.00258-1.32508-1.08136-.70699-1.69944l3.29297-3.29297-3.29297-3.29297c-.39062-.39062-.39062-1.02344,0-1.41406s1.02344-.39062,1.41406,0l4,4c.39062.39062.39062,1.02344,0,1.41406,0,0-3.99492,3.99492-4.00003,4.00003-.18625.18625-.44532.28449-.70705.28535ZM38.29297,19.12109c-.18848.18896-.29297.44043-.29297.70752v.17139c0,1.6543-1.3457,3-3,3-.55273,0-1-.44775-1-1s.44727-1,1-1c.55176,0,1-.44873,1-1v-.17139c0-.80127.31249-1.55518.87891-2.12158l.70703-.70703-.70703-.70703c-.56641-.56641-.87891-1.32031-.87891-2.12158v-.17139c0-.55127-.44824-1-1-1-.55273,0-1-.44775-1-1s.44727-1,1-1c1.6543,0,3,1.3457,3,3v.17139c0,.26709.10449.51855.29297.70752l1.41406,1.41406c.39062.39062.39062,1.02344,0,1.41406l-1.41406,1.41406Z"/>
      </g>
    </g>
  </g>
</svg>