<?xml version="1.0" encoding="UTF-8"?>
<svg xmlns="http://www.w3.org/2000/svg" version="1.1" viewBox="0 0 64 64">
  <!-- Generator: Adobe Illustrator 28.7.1, SVG Export Plug-In . SVG Version: 1.2.0 Build 142)  -->
  <g>
    <g id="Glyph">
      <g>
        <path d="M48,7.17038H16c-1.6543,0-3,1.3457-3,3v14c0,1.6543,1.3457,3,3,3h32c1.6543,0,3-1.3457,3-3v-14c0-1.6543-1.3457-3-3-3ZM22,23.17038c-1.6543,0-3-1.3457-3-3v-.17188c0-.2627-.10693-.52051-.29297-.70703l-1.41406-1.41406c-.39062-.39062-.39062-1.02344,0-1.41406l1.41406-1.41406c.18604-.18652.29297-.44434.29297-.70703v-.17188c0-1.6543,1.3457-3,3-3,.55225,0,1,.44727,1,1s-.44775,1-1,1c-.55127,0-1,.44824-1,1v.17188c0,.80078-.31201,1.55469-.87891,2.12109l-.70703.70703.70703.70703c.56689.56641.87891,1.32031.87891,2.12109v.17188c0,.55176.44873,1,1,1,.55225,0,1,.44727,1,1s-.44775,1-1,1ZM27.70703,20.46335c.39062.39062.39062,1.02343,0,1.41406-.37179.3718-1.02008.39399-1.41407,0l-4-4c-.39062-.39062-.39062-1.02344,0-1.41406l4-4c.39062-.39062,1.02344-.39062,1.41406,0s.39062,1.02344,0,1.41406l-3.29297,3.29297,3.29297,3.29297ZM33.97021,13.41257l-1.99998,7.99994c-.12921.51685-.69581.85765-1.21291.7276-.53564-.13379-.86133-.67676-.72754-1.21191l2-8c.13428-.53711.68018-.86133,1.21289-.72754.53564.13379.86133.67676.72754,1.21191ZM36.99994,22.16455c-.87648.00274-1.32521-1.08295-.70697-1.7012l3.29297-3.29297-3.29297-3.29297c-.39062-.39062-.39062-1.02344,0-1.41406s1.02344-.39062,1.41406,0l4,4c.39062.39062.39062,1.02344,0,1.41406l-3.99999,3.99999c-.18724.18724-.44581.28626-.7071.28714ZM46.70703,17.87741l-1.41406,1.41406c-.18604.18652-.29297.44434-.29297.70703v.17188c0,1.6543-1.3457,3-3,3-.55225,0-1-.44727-1-1s.44775-1,1-1c.55127,0,1-.44824,1-1v-.17188c0-.80078.31201-1.55469.87891-2.12109l.70703-.70703-.70703-.70703c-.56689-.56641-.87891-1.32031-.87891-2.12109v-.17188c0-.55176-.44873-1-1-1-.55225,0-1-.44727-1-1s.44775-1,1-1c1.6543,0,3,1.3457,3,3v.17188c0,.2627.10693.52051.29297.70703l1.41406,1.41406c.39062.39062.39062,1.02344,0,1.41406Z"/>
        <path d="M24.39404,35.25143c-.25195-.10742-.53613-.10742-.78809,0l-9.60547,4.117,9.99951,4.28534,9.99951-4.28534-9.60547-4.117Z"/>
        <path d="M13,51.88425c0,.40039.23828.76172.60596.91895l9.39404,4.02643v-11.42871l-10-4.28558v10.76892Z"/>
        <path d="M25,56.82962l9.39404-4.02643c.36768-.15723.60596-.51855.60596-.91895v-10.76892l-10,4.28558v11.42871Z"/>
        <path d="M46,29.17038c-.55225,0-1,.44727-1,1v9c0,2.73578-1.8421,5.04462-4.34979,5.76385l.05682-.05682c.39062-.39062.39062-1.02344,0-1.41406s-1.02344-.39062-1.41406,0l-2,2c-.39062.39062-.39062,1.02344,0,1.41406l2,2c.37037.37037,1.02013.39394,1.41407,0,.39062-.39062.39062-1.02344,0-1.41406l-.40814-.40814c3.79413-.6236,6.70111-3.91693,6.70111-7.88483v-9c0-.55273-.44775-1-1-1Z"/>
      </g>
    </g>
  </g>
</svg>